HIERARCHY
ROOT Hips
{
	OFFSET 0.00 0.00 0.00
	CHANNELS 6 Xposition Yposition Zposition Yrotation Xrotation Zrotation
	JOINT LHipJoint
	{
		OFFSET	0.0000	0.0000	0.0000
		CHANNELS 3 Yrotation Xrotation Zrotation
		JOINT LeftUpLeg
		{
			OFFSET	1.0138	-0.0809	-0.0827
			CHANNELS 3 Yrotation Xrotation Zrotation
			JOINT LeftLeg
			{
				OFFSET	0.4110	-3.9095	0.3245
				CHANNELS 3 Yrotation Xrotation Zrotation
				JOINT LeftFoot
				{
					OFFSET	0.3810	-4.0555	-0.1470
					CHANNELS 3 Yrotation Xrotation Zrotation
					JOINT LeftToeBase
					{
						OFFSET	0.1396	-0.4462	1.3079
						CHANNELS 3 Yrotation Xrotation Zrotation
						End Site
						{
							OFFSET 0.0161 -0.0248 0.1809
						}
					}
				}
			}
		}
	}
	JOINT LowerBack
	{
		OFFSET	0.0000	0.7977	-0.3873
		CHANNELS 3 Yrotation Xrotation Zrotation
		JOINT Spine
		{
			OFFSET	0.0000	1.4131	0.1715
			CHANNELS 3 Yrotation Xrotation Zrotation
			JOINT Spine1
			{
				OFFSET	0.0000	1.4392	-0.1032
				CHANNELS 3 Yrotation Xrotation Zrotation
				JOINT LeftShoulder
				{
					OFFSET	0.2274	1.0382	0.4032
					CHANNELS 3 Yrotation Xrotation Zrotation
					JOINT LeftArm
					{
						OFFSET	1.4730	-0.2267	-0.0231
						CHANNELS 3 Yrotation Xrotation Zrotation
						JOINT LeftForeArm
						{
							OFFSET	1.6131	-1.8059	0.0081
							CHANNELS 3 Yrotation Xrotation Zrotation
							JOINT LeftHand
							{
								OFFSET	1.2197	-1.2423	1.6317
								CHANNELS 3 Yrotation Xrotation Zrotation
								JOINT LThumb
								{
									OFFSET	0.0109	-0.0753	0.4387
									CHANNELS 3 Yrotation Xrotation Zrotation
									End Site
									{
										OFFSET -0.2090 -0.0868 0.2097
									}
								}
								JOINT LeftFingerBase
								{
									OFFSET	0.1071	-0.1567	0.2607
									CHANNELS 3 Yrotation Xrotation Zrotation
									JOINT LeftHandFinger1
									{
										OFFSET	0.1706	-0.2492	0.6830
										CHANNELS 3 Yrotation Xrotation Zrotation
										End Site
										{
											OFFSET 0.0335 -0.1507 0.2071
										}
									}
								}
							}
						}
					}
				}
				JOINT Neck
				{
					OFFSET	0.0000	1.7498	0.2381
					CHANNELS 3 Yrotation Xrotation Zrotation
					JOINT Neck1
					{
						OFFSET	0.0000	0.5043	0.1959
						CHANNELS 3 Yrotation Xrotation Zrotation
						JOINT Head
						{
							OFFSET	0.0000	0.5044	0.1959
							CHANNELS 3 Yrotation Xrotation Zrotation
							End Site
							{
								OFFSET 0.0000 1.4798 -0.0693
							}
						}
					}
				}
				JOINT RightShoulder
				{
					OFFSET	-0.2274	1.0382	0.4032
					CHANNELS 3 Yrotation Xrotation Zrotation
					JOINT RightArm
					{
						OFFSET	-1.4730	-0.2267	-0.0231
						CHANNELS 3 Yrotation Xrotation Zrotation
						JOINT RightForeArm
						{
							OFFSET	-1.6131	-1.8059	0.0081
							CHANNELS 3 Yrotation Xrotation Zrotation
							JOINT RightHand
							{
								OFFSET	-1.2197	-1.2423	1.6317
								CHANNELS 3 Yrotation Xrotation Zrotation
								JOINT RThumb
								{
									OFFSET	-0.0109	-0.0753	0.4387
									CHANNELS 3 Yrotation Xrotation Zrotation
									End Site
									{
										OFFSET 0.2090 -0.0868 0.2097
									}
								}
								JOINT RightFingerBase
								{
									OFFSET	-0.1071	-0.1567	0.2607
									CHANNELS 3 Yrotation Xrotation Zrotation
									JOINT RightHandFinger1
									{
										OFFSET	-0.1706	-0.2492	0.6830
										CHANNELS 3 Yrotation Xrotation Zrotation
										End Site
										{
											OFFSET -0.0335 -0.1507 0.2071
										}
									}
								}
							}
						}
					}
				}
			}
		}
	}
	JOINT RHipJoint
	{
		OFFSET	0.0000	0.0000	0.0000
		CHANNELS 3 Yrotation Xrotation Zrotation
		JOINT RightUpLeg
		{
			OFFSET	-1.0138	-0.0809	-0.0827
			CHANNELS 3 Yrotation Xrotation Zrotation
			JOINT RightLeg
			{
				OFFSET	-0.4110	-3.9095	0.3245
				CHANNELS 3 Yrotation Xrotation Zrotation
				JOINT RightFoot
				{
					OFFSET	-0.3810	-4.0555	-0.1470
					CHANNELS 3 Yrotation Xrotation Zrotation
					JOINT RightToeBase
					{
						OFFSET	-0.1396	-0.4462	1.3079
						CHANNELS 3 Yrotation Xrotation Zrotation
						End Site
						{
							OFFSET -0.0161 -0.0248 0.1809
						}
					}
				}
			}
		}
	}
}
MOTION
Frames: 6
Frame Time: 0.0333333
-0.3557 8.5274 0.1150 -1.1119 -2.8348 -0.8803 0.0000 -0.0000 0.0000 -2.5645 -21.6293 -2.2194 16.2620 44.7668 2.5406 2.9277 4.3179 11.3866 0.1594 -17.6686 -3.0925 0.0000 -0.0000 0.0000 2.0355 0.3284 1.4878 4.0883 0.6617 1.8988 -12.3255 2.1857 -0.9506 -14.8898 5.7183 -25.9746 22.7364 24.4755 2.7943 23.5879 0.2662 -0.4156 35.1967 -1.8595 27.4681 -0.6992 17.8565 -5.8670 -1.5480 -9.3272 1.3096 -0.5086 -1.9365 -1.1193 -0.5087 -1.9364 -1.1194 -1.9529 -9.8127 -2.5580 -0.0440 0.9180 1.7912 32.5655 14.9956 20.0912 -6.2202 8.0826 1.5990 -32.9872 -13.8066 7.0482 -38.0417 6.7195 -29.8877 -1.9302 15.4139 3.6121 3.7914 -6.5217 0.4664 0.0000 -0.0000 0.0000 -2.1628 -6.9268 10.3434 -2.0998 25.0862 1.6391 3.4652 -13.5108 -17.1685 -0.0012 -0.3176 0.2335 
-0.3309 8.5330 0.1202 -0.8195 -2.2094 -1.0170 0.0000 -0.0000 0.0000 -6.3097 -23.7270 -1.0386 15.0416 35.0596 0.0865 5.5385 3.5800 10.8554 0.0002 -4.7950 -0.1135 0.0000 -0.0000 0.0000 2.5531 0.1169 1.6282 5.0397 0.2090 2.5540 -13.2622 2.3037 -1.0366 -14.9853 6.7116 -25.5364 21.6054 23.4885 2.3540 22.3574 0.7452 -0.4906 35.1967 -1.8595 27.4681 -0.6992 17.8565 -5.8670 -1.5480 -9.3272 1.3096 -0.6783 -1.5321 -1.2033 -0.6782 -1.5320 -1.2032 -2.7831 -10.3059 -2.2971 -0.2756 0.8994 1.9862 33.7545 15.3977 18.5377 -4.8673 6.5960 1.7446 -34.2037 -14.4631 7.2198 -38.0418 6.7194 -29.8877 -1.9302 15.4139 3.6121 3.7914 -6.5216 0.4665 0.0000 -0.0000 0.0000 -3.0136 -3.0607 11.0299 -2.3690 22.8587 -0.0208 4.5260 -17.0331 -18.6509 -0.0000 -0.0383 -0.0000 
-0.2929 8.4931 0.1294 -0.7643 -1.7919 -1.1420 0.0000 -0.0000 0.0000 -7.8985 -23.5937 -0.9031 11.5344 21.6768 -1.6065 6.5852 4.9334 9.9513 -0.0000 -0.0000 -0.0000 0.0000 -0.0000 0.0000 3.0355 -0.1905 1.6804 5.9761 -0.4698 3.3687 -14.0036 2.4111 -1.1622 -13.9757 8.1750 -25.3176 19.4421 21.5380 1.5635 22.5768 1.3671 -0.8578 35.1967 -1.8595 27.4681 -0.6992 17.8565 -5.8670 -1.5480 -9.3272 1.3096 -0.8305 -1.2127 -1.2854 -0.8305 -1.2127 -1.2854 -3.6002 -10.7048 -2.0411 -0.5044 0.8819 2.0538 34.7895 16.0657 16.7761 -3.5155 5.0993 1.8549 -34.3312 -13.8839 6.7076 -38.0417 6.7195 -29.8877 -1.9302 15.4139 3.6121 3.7914 -6.5217 0.4665 0.0000 -0.0000 0.0000 -4.7375 -0.1022 10.9558 -0.8521 22.7981 -0.3898 5.1933 -19.9903 -18.7406 0.0000 -0.0494 0.0000 
-0.2537 8.3828 0.1648 -1.0038 -1.5115 -1.7438 0.0000 -0.0000 0.0000 -7.1151 -22.2584 -1.6220 9.0941 7.2819 -0.4361 2.9281 5.6695 8.8949 0.0000 -0.0000 -0.0000 0.0000 -0.0000 0.0000 3.4661 -0.5637 1.7392 6.8197 -1.3061 4.2877 -14.4990 2.4927 -1.2906 -12.3849 9.7103 -25.3333 17.2974 19.5256 0.8499 23.7546 2.0265 -0.9484 35.1967 -1.8595 27.4681 -0.6992 17.8565 -5.8670 -1.5480 -9.3272 1.3096 -0.9357 -1.0282 -1.3518 -0.9358 -1.0282 -1.3519 -4.2519 -10.8924 -1.8468 -0.7350 0.8638 2.0002 35.6301 16.7839 15.0345 -2.1321 3.5590 1.9311 -33.7722 -12.4971 5.8335 -38.0418 6.7194 -29.8877 -1.9302 15.4139 3.6121 3.7914 -6.5217 0.4665 0.0000 -0.0000 0.0000 -6.0913 2.2696 10.7405 0.5934 24.5932 0.1136 6.2782 -24.0074 -19.5017 -0.0000 -0.0595 -0.0000 
-0.2141 8.2222 0.2389 -1.4783 -1.4870 -2.9473 0.0000 -0.0000 0.0000 -6.1433 -25.1731 -1.4836 7.1146 3.8172 1.8440 0.0709 0.5014 7.7464 -0.0000 -0.0000 0.0000 0.0000 -0.0000 0.0000 3.7980 -0.9670 2.0420 7.4190 -2.1729 5.1228 -14.7295 2.5403 -1.3927 -10.8353 10.8295 -25.5589 16.3030 18.5671 0.5437 25.1705 2.5149 -0.2617 35.1967 -1.8595 27.4681 -0.6992 17.8565 -5.8670 -1.5480 -9.3272 1.3096 -0.9650 -1.0268 -1.3906 -0.9650 -1.0268 -1.3906 -4.5668 -10.7689 -1.7747 -0.9548 0.8473 1.9427 36.1599 17.2327 13.5170 -0.8879 2.1688 1.9679 -33.0671 -11.0274 4.9293 -38.0418 6.7194 -29.8877 -1.9302 15.4139 3.6121 3.7914 -6.5216 0.4665 0.0000 -0.0000 0.0000 -6.3938 5.1531 10.8581 1.4500 26.4099 0.8381 7.5539 -28.3610 -20.4946 -0.0000 -0.0630 0.0000 
-0.1788 8.1190 0.2875 -1.9827 -1.4858 -3.1948 0.0000 -0.0000 0.0000 -6.5187 -27.2893 -1.2486 6.5311 2.9305 2.6758 -0.0492 -4.8390 7.7637 0.0000 0.0000 0.0000 0.0000 -0.0000 0.0000 3.9432 -1.2618 2.2698 7.6484 -2.7771 5.4831 -14.7687 2.5637 -1.4742 -9.8141 11.0531 -25.8530 17.2868 19.5155 0.8466 26.0030 2.5193 1.2713 35.1967 -1.8595 27.4681 -0.6992 17.8565 -5.8670 -1.5480 -9.3272 1.3096 -0.9239 -1.1674 -1.4075 -0.9239 -1.1674 -1.4075 -4.5153 -10.4005 -1.8191 -1.1104 0.8385 1.9737 36.1906 17.0747 12.4343 -0.2523 1.4575 1.9750 -32.6676 -10.1774 4.2406 -38.0417 6.7195 -29.8877 -1.9302 15.4139 3.6121 3.7914 -6.5217 0.4665 0.0000 -0.0000 0.0000 -5.9762 9.1577 10.1185 2.0300 25.1538 1.3715 8.4338 -30.9932 -21.4207 -0.0000 -0.0472 0.0001 
